<svg width="20" height="20" viewBox="0 0 20 20" fill="none" xmlns="http://www.w3.org/2000/svg">
    <path fill-rule="evenodd" clip-rule="evenodd" d="M17.0548 8.20528C16.8257 7.72987 16.3711 7.43441 15.8685 7.43441H11.4316V2.42482C11.4316 1.79697 11.0698 1.26571 10.51 1.07252C9.94764 0.878389 9.36741 1.08199 9.02159 1.58768H9.0207L3.05356 10.319C2.75766 10.7536 2.71666 11.319 2.94572 11.7963C3.17478 12.2707 3.62934 12.5662 4.13202 12.5662H8.56793V17.5767C8.56793 18.2036 8.92979 18.7339 9.48952 18.9271C9.63034 18.9764 9.77295 19 9.91288 19C10.3282 19 10.7213 18.7917 10.9797 18.4129L16.9469 9.68164C17.2428 9.24697 17.2838 8.68161 17.0548 8.20528Z" fill="#B035D0"/>
    </svg>
    