<svg width="16" height="16" viewBox="0 0 16 16" fill="none" xmlns="http://www.w3.org/2000/svg">
<path d="M14.833 6.45606L14.8327 6.46469V6.47332C14.8327 6.89061 14.8323 9.11451 14.8073 9.46437L14.8058 9.48503L14.8061 9.50574C14.8143 10.2206 14.7055 10.932 14.484 11.6117L14.4832 11.614C14.4272 11.7888 14.3305 11.9478 14.201 12.0779C13.9999 12.2737 13.7454 12.4055 13.4697 12.4567C11.0796 12.6402 9.05467 12.6731 6.73984 12.64L6.73093 12.6399L6.72202 12.6401C5.30365 12.6704 3.88494 12.5988 2.47685 12.4258C2.21006 12.3734 1.96416 12.2448 1.76894 12.0556C1.59912 11.8612 1.479 11.6284 1.41903 11.3772L1.41914 11.3772L1.41654 11.3672C1.31179 10.9654 1.25001 10.5535 1.23224 10.1386L1.23239 10.1386L1.23157 10.1264C1.13644 8.71173 1.13635 7.29223 1.23131 5.87751C1.23219 5.86695 1.23306 5.85641 1.23394 5.84588C1.26706 5.44782 1.29881 5.06629 1.38485 4.71711C1.47248 4.36146 1.60496 4.09203 1.805 3.90755L1.80503 3.90758L1.80987 3.903C2.00398 3.71914 2.24615 3.59421 2.50817 3.5425C4.33094 3.3804 6.16103 3.315 7.99074 3.34658L7.99916 3.34673L8.00759 3.34659C9.84421 3.31637 11.6811 3.38399 13.5106 3.54914C13.818 3.60928 14.0973 3.76754 14.3068 3.99965C14.6815 4.76241 14.8624 5.60613 14.833 6.45606ZM5.9927 9.89999V10.739L6.73064 10.3397C7.39515 9.9802 8.07927 9.63268 8.73924 9.29742L8.79499 9.2691C9.46902 8.92668 10.1191 8.59583 10.6817 8.28398L11.4921 7.83489L10.6719 7.40402L6.72523 5.33069L5.9927 4.94586V5.77332V9.89999Z" fill="#EA3D09" stroke="#EA3D09"/>
</svg>
