<svg width="236" height="304" viewBox="0 0 236 304" fill="none" xmlns="http://www.w3.org/2000/svg">
    <path fill-rule="evenodd" clip-rule="evenodd" d="M123.331 232.032L141.381 237.155C141.381 237.155 128.815 269.233 91.9774 293.8L90.4091 293.025L114.441 247.568L111.194 245.82L123.331 232.032Z" fill="url(#paint0_linear_1956_75932)"/>
    <path fill-rule="evenodd" clip-rule="evenodd" d="M47.7611 194.779L32.3218 183.243C32.3218 183.243 14.4659 212.706 17.3162 256.893L18.8844 257.668L40.4072 210.971L43.7679 212.489L47.7611 194.779Z" fill="url(#paint1_linear_1956_75932)"/>
    <path fill-rule="evenodd" clip-rule="evenodd" d="M173.833 34.6249C152.421 24.0399 93.369 59.093 72.3382 108.453C51.3179 157.818 38.5279 239.276 38.5279 239.276L65.8179 253.104L93.3765 266.389C93.3765 266.389 150.34 206.768 176.787 160.086C203.254 113.413 195.099 45.1376 173.833 34.6249Z" fill="url(#paint2_radial_1956_75932)"/>
    <path fill-rule="evenodd" clip-rule="evenodd" d="M38.5275 239.276C38.5275 239.276 71.1167 251.938 93.3865 266.395C93.3865 266.395 61.2536 254.283 38.5275 239.276Z" fill="#31165F"/>
    <path fill-rule="evenodd" clip-rule="evenodd" d="M134.325 42.1429C134.325 42.1429 169.422 47.5228 192.283 73.9159C192.283 73.9159 189.308 42.4565 173.833 34.6247C159.916 27.589 134.325 42.1429 134.325 42.1429Z" fill="url(#paint3_radial_1956_75932)"/>
    <path d="M192.064 74.0946C170.952 49.2427 134.635 42.4913 134.28 42.4199L134.381 41.8456C134.752 41.9118 171.258 48.7041 192.511 73.717L192.064 74.0946Z" fill="#53345F"/>
    <path fill-rule="evenodd" clip-rule="evenodd" d="M165.792 32.7581L181.433 41.4916C181.433 41.4916 176.167 31.6678 165.792 32.7581Z" fill="#53345F"/>
    <path fill-rule="evenodd" clip-rule="evenodd" d="M168.402 33.0848C168.402 33.0848 173.102 34.4196 177.538 37.3152C177.538 37.3152 179.544 28.8094 176.924 27.1887C174.314 25.5731 168.402 33.0848 168.402 33.0848Z" fill="url(#paint4_linear_1956_75932)"/>
    <path opacity="0.5" fill-rule="evenodd" clip-rule="evenodd" d="M48.8966 186.376C48.8966 186.376 102.676 194.071 132.44 222.054C117.969 239.854 93.4023 266.39 93.4023 266.39C93.4023 266.39 73.8969 253.079 38.5433 239.271C38.5277 239.276 41.4651 211.91 48.8966 186.376Z" fill="url(#paint5_radial_1956_75932)"/>
    <path opacity="0.5" fill-rule="evenodd" clip-rule="evenodd" d="M154.885 68.4528C134.82 60.4071 109.674 76.6385 98.852 96.2943C88.0296 115.95 100.332 137.306 120.188 146.432C140.045 155.558 162.934 150.103 171.566 126.983C179.378 106.1 177.156 77.3805 154.885 68.4528Z" fill="url(#paint6_radial_1956_75932)"/>
    <path fill-rule="evenodd" clip-rule="evenodd" d="M156.467 65.2536C136.402 57.2079 111.257 73.4392 100.434 93.095C89.6116 112.751 101.914 134.106 121.77 143.233C141.627 152.359 164.516 146.904 173.148 123.784C180.96 102.9 178.738 74.1813 156.467 65.2536Z" fill="#31165F"/>
    <path fill-rule="evenodd" clip-rule="evenodd" d="M157.568 63.0262C137.503 54.9805 112.357 71.2119 101.535 90.8676C90.7229 110.529 103.015 131.879 122.871 141.005C142.728 150.132 165.617 144.676 174.249 121.557C182.061 100.673 179.839 71.9539 157.568 63.0262Z" fill="url(#paint7_radial_1956_75932)"/>
    <path fill-rule="evenodd" clip-rule="evenodd" d="M155.314 70.7979C137.473 63.3054 119.853 77.1033 111.395 92.4504C102.952 107.792 112.641 124.512 128.243 131.692C143.845 138.871 161.795 134.643 168.525 116.607C174.621 100.274 173.949 78.6311 155.314 70.7979Z" fill="#A6345F"/>
    <path fill-rule="evenodd" clip-rule="evenodd" d="M147.24 134.057C147.225 134.062 147.225 134.062 147.225 134.062L147.193 134.073C141.143 135.18 134.535 134.23 128.31 131.373C113.46 124.54 103.372 107.05 111.411 92.4455C114.122 87.5406 117.783 82.9757 122.164 79.3516C130.779 72.1615 142.129 68.6518 154.074 73.4119C171.725 80.4462 172.442 101.474 166.649 117.007C162.929 126.981 155.615 132.512 147.24 134.057Z" fill="url(#paint8_linear_1956_75932)"/>
    <path d="M121.881 143.299L121.358 143.041L93.7739 198.841L94.2966 199.099L121.881 143.299Z" fill="#53345F"/>
    <path d="M48.8459 186.663L48.9477 186.089C109.496 196.934 132.423 221.616 132.653 221.86L132.228 222.248C131.992 222.014 109.181 197.468 48.8459 186.663Z" fill="#53345F"/>
    <path d="M53.9106 165.995L53.8349 165.412C54.0434 165.385 75.6988 162.845 105.54 175.645L105.313 176.183C75.6182 163.456 54.1296 165.974 53.9106 165.995Z" fill="#53345F"/>
    <path fill-rule="evenodd" clip-rule="evenodd" d="M80.5765 242.277L91.7109 217.805L99.1195 219.399L85.7414 244.83L80.5765 242.277Z" fill="#31165F"/>
    <path fill-rule="evenodd" clip-rule="evenodd" d="M42.8222 242.011C42.8222 242.011 67.7869 251.489 90.1051 265.111L83.3598 275.203L39.5035 252.04L42.8222 242.011Z" fill="url(#paint9_radial_1956_75932)"/>
    <path opacity="0.5" fill-rule="evenodd" clip-rule="evenodd" d="M41.1505 247.077C41.1505 247.077 51.3615 246.686 61.954 252.209C72.5361 257.726 84.9352 272.859 84.9352 272.859L90.1212 265.105C90.1212 265.105 65.8979 250.047 42.8383 242.005L41.1505 247.077Z" fill="#31165F"/>
    <path d="M161.435 85.2598C161.435 85.2598 163.683 90.9767 163.827 99.7649L168.619 99.4406C168.619 99.4406 169.166 91.15 165.033 86.0885L161.435 85.2598Z" fill="white"/>
    <path d="M114.392 99.9946L114.778 106.925L110.82 107.219L110.837 101.607L114.392 99.9946Z" fill="white"/>
    <path opacity="0.5" fill-rule="evenodd" clip-rule="evenodd" d="M123.298 48.8178C123.298 48.8178 161.397 48.1754 193.176 83.296L192.273 73.9114C192.273 73.9114 174.746 51.9381 134.315 42.1384L123.298 48.8178Z" fill="url(#paint10_radial_1956_75932)"/>
    <path d="M99.6693 179.703C100.616 180.171 101.763 179.783 102.232 178.836C102.7 177.889 102.312 176.742 101.365 176.274C100.418 175.806 99.2704 176.194 98.8023 177.141C98.3341 178.088 98.7224 179.235 99.6693 179.703Z" fill="url(#paint11_linear_1956_75932)"/>
    <path fill-rule="evenodd" clip-rule="evenodd" d="M101.876 178.66C101.509 179.403 100.603 179.709 99.8605 179.342C99.1181 178.975 98.8115 178.069 99.1785 177.327C99.5454 176.584 100.452 176.278 101.194 176.645C101.936 177.012 102.243 177.918 101.876 178.66Z" fill="url(#paint12_radial_1956_75932)"/>
    <path d="M103.856 171.234C104.803 171.703 105.95 171.314 106.418 170.367C106.886 169.42 106.498 168.273 105.551 167.805C104.604 167.337 103.457 167.725 102.989 168.672C102.521 169.619 102.909 170.766 103.856 171.234Z" fill="url(#paint13_linear_1956_75932)"/>
    <path fill-rule="evenodd" clip-rule="evenodd" d="M106.062 170.191C105.696 170.934 104.789 171.24 104.047 170.873C103.305 170.507 102.998 169.6 103.365 168.858C103.732 168.116 104.638 167.809 105.38 168.176C106.123 168.543 106.429 169.449 106.062 170.191Z" fill="url(#paint14_radial_1956_75932)"/>
    <path fill-rule="evenodd" clip-rule="evenodd" d="M106.693 98.6736C106.222 99.625 105.071 100.006 104.13 99.5406C103.179 99.0703 102.798 97.9193 103.263 96.9783C103.734 96.0269 104.885 95.6461 105.826 96.1113C106.767 96.5765 107.163 97.7222 106.693 98.6736Z" fill="#31165F"/>
    <path fill-rule="evenodd" clip-rule="evenodd" d="M106.327 98.4928C105.96 99.2352 105.053 99.5418 104.311 99.1749C103.569 98.8079 103.262 97.9017 103.629 97.1594C103.996 96.4171 104.902 96.1104 105.645 96.4774C106.392 96.8339 106.699 97.7401 106.327 98.4928Z" fill="url(#paint15_radial_1956_75932)"/>
    <path d="M119.153 76.7311C120.1 77.1992 121.247 76.811 121.715 75.864C122.183 74.9171 121.795 73.7699 120.848 73.3017C119.901 72.8336 118.754 73.2218 118.286 74.1688C117.818 75.1158 118.206 76.2629 119.153 76.7311Z" fill="#31165F"/>
    <path fill-rule="evenodd" clip-rule="evenodd" d="M121.349 75.6833C120.982 76.4256 120.076 76.7323 119.334 76.3653C118.591 75.9983 118.285 75.0922 118.652 74.3499C119.019 73.6075 119.925 73.3009 120.667 73.6678C121.415 74.0243 121.721 74.9305 121.349 75.6833Z" fill="url(#paint16_radial_1956_75932)"/>
    <path fill-rule="evenodd" clip-rule="evenodd" d="M113.278 125.803C112.808 126.754 111.657 127.135 110.716 126.67C109.764 126.2 109.384 125.049 109.849 124.108C110.319 123.156 111.47 122.776 112.411 123.241C113.352 123.706 113.743 124.862 113.278 125.803Z" fill="#31165F"/>
    <path fill-rule="evenodd" clip-rule="evenodd" d="M112.912 125.622C112.545 126.364 111.639 126.671 110.897 126.304C110.154 125.937 109.848 125.031 110.215 124.288C110.582 123.546 111.488 123.239 112.23 123.606C112.972 123.973 113.279 124.879 112.912 125.622Z" fill="url(#paint17_radial_1956_75932)"/>
    <path fill-rule="evenodd" clip-rule="evenodd" d="M138.842 141.017C138.372 141.968 137.221 142.349 136.28 141.884C135.329 141.414 134.948 140.263 135.413 139.322C135.883 138.37 137.034 137.989 137.975 138.455C138.916 138.92 139.313 140.065 138.842 141.017Z" fill="#31165F"/>
    <path fill-rule="evenodd" clip-rule="evenodd" d="M138.477 140.836C138.11 141.578 137.203 141.885 136.461 141.518C135.719 141.151 135.412 140.245 135.779 139.503C136.146 138.76 137.052 138.454 137.795 138.821C138.537 139.187 138.849 140.083 138.477 140.836Z" fill="url(#paint18_radial_1956_75932)"/>
    <path fill-rule="evenodd" clip-rule="evenodd" d="M164.77 133.888C164.299 134.84 163.148 135.221 162.207 134.755C161.256 134.285 160.875 133.134 161.34 132.193C161.806 131.252 162.962 130.861 163.903 131.326C164.844 131.791 165.235 132.947 164.77 133.888Z" fill="#31165F"/>
    <path fill-rule="evenodd" clip-rule="evenodd" d="M164.404 133.708C164.037 134.45 163.131 134.757 162.388 134.39C161.646 134.023 161.339 133.116 161.706 132.374C162.073 131.632 162.979 131.325 163.722 131.692C164.464 132.059 164.771 132.965 164.404 133.708Z" fill="url(#paint19_radial_1956_75932)"/>
    <path fill-rule="evenodd" clip-rule="evenodd" d="M177.05 102.099C176.58 103.051 175.429 103.432 174.488 102.966C173.547 102.501 173.155 101.345 173.621 100.404C174.091 99.4527 175.242 99.0719 176.183 99.5371C177.124 100.002 177.515 101.158 177.05 102.099Z" fill="#31165F"/>
    <path fill-rule="evenodd" clip-rule="evenodd" d="M176.684 101.918C176.317 102.66 175.411 102.967 174.669 102.6C173.926 102.233 173.62 101.327 173.987 100.585C174.354 99.8423 175.26 99.5356 176.002 99.9026C176.744 100.27 177.051 101.176 176.684 101.918Z" fill="url(#paint20_radial_1956_75932)"/>
    <path d="M168.711 80.5953C169.658 81.0635 170.805 80.6753 171.273 79.7283C171.741 78.7813 171.353 77.6341 170.406 77.166C169.459 76.6979 168.312 77.086 167.844 78.033C167.376 78.98 167.764 80.1272 168.711 80.5953Z" fill="#31165F"/>
    <path fill-rule="evenodd" clip-rule="evenodd" d="M170.907 79.5469C170.54 80.2893 169.634 80.5959 168.892 80.2289C168.149 79.862 167.843 78.9558 168.21 78.2135C168.577 77.4712 169.483 77.1645 170.225 77.5315C170.968 77.8984 171.279 78.7941 170.907 79.5469Z" fill="url(#paint21_radial_1956_75932)"/>
    <path d="M147.143 66.8766C148.09 67.3447 149.238 66.9565 149.706 66.0095C150.174 65.0625 149.786 63.9154 148.839 63.4472C147.892 62.9791 146.745 63.3673 146.276 64.3143C145.808 65.2613 146.196 66.4085 147.143 66.8766Z" fill="#31165F"/>
    <path fill-rule="evenodd" clip-rule="evenodd" d="M149.34 65.8283C148.973 66.5707 148.067 66.8773 147.324 66.5103C146.582 66.1434 146.275 65.2372 146.642 64.4949C147.009 63.7525 147.915 63.4459 148.658 63.8129C149.405 64.1694 149.712 65.0755 149.34 65.8283Z" fill="url(#paint22_radial_1956_75932)"/>
    <path fill-rule="evenodd" clip-rule="evenodd" d="M18.8844 257.668L20.1495 258.293L41.6824 211.549L40.4071 210.971L18.8844 257.668Z" fill="#6F2561"/>
    <path fill-rule="evenodd" clip-rule="evenodd" d="M114.431 247.563L113.197 246.901L89.5521 292.601L90.3989 293.019L114.431 247.563Z" fill="#6F2561"/>
    <path fill-rule="evenodd" clip-rule="evenodd" d="M102.566 208.952L107.083 211.184L66.7801 281.344L63.6331 279.789L102.566 208.952Z" fill="url(#paint23_linear_1956_75932)"/>
    <path fill-rule="evenodd" clip-rule="evenodd" d="M102.566 208.952L91.4962 223.424L63.6331 279.789L102.566 208.952Z" fill="#FF4C61"/>
    <path opacity="0.5" fill-rule="evenodd" clip-rule="evenodd" d="M105.841 213.355L93.3866 266.394L82.7554 260.397L76.9445 271.81L73.2956 270.006L105.841 213.355Z" fill="#31165F"/>
    <path d="M113.025 60.9389C113.025 60.9389 115.036 55.74 119.713 54.227L122.223 55.6239C122.223 55.6239 117.947 59.2214 114.301 61.5695L113.025 60.9389Z" fill="white"/>
    <path d="M138.467 209.837L153.834 190.646L155.162 191.302L140.024 210.607L138.467 209.837Z" fill="white"/>
    <path fill-rule="evenodd" clip-rule="evenodd" d="M191.562 116.221C191.562 116.221 200.367 118.517 189.912 125.007L191.562 116.221Z" fill="url(#paint24_linear_1956_75932)"/>
    <path fill-rule="evenodd" clip-rule="evenodd" d="M99.0733 69.1603C99.0733 69.1603 90.5856 67.6967 93.2708 75.5032L99.0733 69.1603Z" fill="url(#paint25_linear_1956_75932)"/>
    <path opacity="0.5" fill-rule="evenodd" clip-rule="evenodd" d="M46.6675 242.311C46.6675 242.311 57.5721 168.352 73.0325 116.759L70.5236 116.754C70.5236 116.754 44.1141 194.576 39.6769 239.714L46.6675 242.311Z" fill="white"/>
    <path fill-rule="evenodd" clip-rule="evenodd" d="M156.98 186.125L165.917 174.02L167.172 174.64L158.235 186.745L156.98 186.125Z" fill="white"/>
    <path fill-rule="evenodd" clip-rule="evenodd" d="M63.1397 166.538C63.1397 166.538 79.8232 167.187 93.4707 172.372C93.4707 172.372 79.0588 168.865 63.1397 166.538Z" fill="white"/>
    <path fill-rule="evenodd" clip-rule="evenodd" d="M119.688 148.682L95.8445 197.757C95.8341 197.752 105.462 180.433 119.688 148.682Z" fill="white"/>
    <path fill-rule="evenodd" clip-rule="evenodd" d="M59.7846 189.247C59.7846 189.247 97.082 195.78 125.257 217.346C125.262 217.335 104.921 200.215 59.7846 189.247Z" fill="white"/>
    <path fill-rule="evenodd" clip-rule="evenodd" d="M130.545 64.3958C130.545 64.3958 134.095 68.375 140.797 61.3709C140.797 61.3709 134.865 62.3159 130.545 64.3958Z" fill="white"/>
    <path fill-rule="evenodd" clip-rule="evenodd" d="M126.9 142.646C126.9 142.646 137.828 147.359 156.148 142.039C156.148 142.039 143.384 148.831 126.9 142.646Z" fill="white"/>
    <path fill-rule="evenodd" clip-rule="evenodd" d="M127.48 131.315C127.48 131.315 134.315 140.912 145.199 134.896C145.21 134.901 138.083 136.868 127.48 131.315Z" fill="white"/>
    <g opacity="0.36">
    <path fill-rule="evenodd" clip-rule="evenodd" d="M115.314 151.373C114.573 151.476 113.259 151.476 113.023 152.401C112.916 152.829 112.98 153.277 112.92 153.716C112.859 154.102 112.761 154.483 112.622 154.844C112.432 155.335 112.321 156.191 112.48 156.712C112.596 157.107 113.007 156.96 113.314 156.786C113.642 156.597 113.986 156.402 114.167 156.062C114.41 155.623 114.648 155.194 114.98 154.812C115.104 154.665 115.318 154.576 115.432 154.424C115.598 154.22 115.706 153.948 115.82 153.718C116.042 153.19 116.151 152.021 115.314 151.373Z" fill="white"/>
    <path fill-rule="evenodd" clip-rule="evenodd" d="M109.608 157.256C109.649 156.99 109.783 156.823 110.018 156.743C110.833 157.173 110.315 158.933 109.381 158.874C108.311 158.801 108.801 157.521 109.336 157.122L109.608 157.256Z" fill="white"/>
    <path fill-rule="evenodd" clip-rule="evenodd" d="M89.269 160.187C89.801 160.189 90.296 160.083 90.7253 160.425C91.0865 160.721 91.297 161.111 91.4033 161.554C91.5466 162.106 91.4448 162.654 91.3534 163.208C91.3077 163.484 91.3142 163.761 91.1221 163.965C90.3801 164.808 88.9463 164.945 87.9181 164.788C87.3282 164.691 86.7647 164.647 86.2108 164.425C85.8294 164.276 85.4376 164.147 85.0511 164.034C84.7221 163.937 84.3777 163.922 84.1159 163.689C83.9273 163.518 83.7172 163.18 83.6118 162.945C83.2485 162.206 83.203 161.377 83.591 160.671C84.2687 159.432 86.2704 159.173 87.5534 159.156C88.6019 159.167 90.1986 159.306 89.269 160.187Z" fill="white"/>
    <path fill-rule="evenodd" clip-rule="evenodd" d="M94.0788 160.43C93.7724 160.734 93.6163 160.787 93.8108 161.131C93.9476 161.38 94.2454 161.515 94.5116 161.555C95.0231 161.626 95.908 161.231 95.8062 160.621C95.7526 160.308 95.5673 159.709 95.3005 159.538C94.7827 159.217 93.7207 159.655 93.5456 160.167L94.0788 160.43Z" fill="white"/>
    <path fill-rule="evenodd" clip-rule="evenodd" d="M104.484 180.939C104.318 181.117 104.246 181.263 104.137 181.483C103.894 181.974 103.651 182.466 103.409 182.957C102.954 183.877 102.358 184.741 101.903 185.661C101.572 186.33 101.356 187.056 101.125 187.761C101.012 188.121 100.904 188.524 100.812 188.894C100.906 188.915 100.999 188.753 101.072 188.684C101.316 188.48 101.529 188.234 101.773 188.055C102.35 187.651 102.938 187.226 103.483 186.78C103.587 186.701 103.66 186.581 103.779 186.523C103.93 186.455 104.113 186.402 104.274 186.338C104.55 186.228 104.831 186.08 105.06 185.881C105.584 185.425 105.941 184.73 106.22 184.087C106.313 183.872 106.364 183.637 106.457 183.423C106.56 183.188 106.669 182.968 106.751 182.723C106.915 182.206 106.913 181.632 106.879 181.095C106.84 180.464 106.939 179.446 106.369 178.995C106.097 178.783 105.816 179.06 105.64 179.285C105.422 179.568 105.262 179.892 105.065 180.185C104.785 180.593 104.391 181.023 104.484 180.939Z" fill="white"/>
    <path fill-rule="evenodd" clip-rule="evenodd" d="M107.298 176.905C107.547 176.742 107.947 176.406 108.267 176.655C108.576 176.899 108.343 177.396 108.167 177.647C107.758 178.238 107.273 177.166 107.532 176.773L107.298 176.905Z" fill="white"/>
    <path fill-rule="evenodd" clip-rule="evenodd" d="M111.581 184.031C111.342 184.225 111.124 184.403 111.042 184.701C110.929 185.139 111.144 185.441 111.526 185.643C112.101 185.953 112.581 186.008 112.996 185.459C113.255 185.118 113.284 184.43 113.136 184.045C113.072 183.857 112.926 183.706 112.753 183.608C112.403 183.396 112.091 183.606 111.778 183.79L111.581 184.031Z" fill="white"/>
    <path fill-rule="evenodd" clip-rule="evenodd" d="M115.679 208.982C116.77 209.013 117.855 209.055 118.92 209.348C119.85 209.599 120.66 210.091 121.554 210.441C122.813 210.921 124.118 211.071 125.418 211.363C126.566 211.618 127.632 211.963 128.548 212.741C129.234 213.327 129.823 214.243 129.832 215.171C129.835 215.745 129.707 216.319 129.532 216.857C129.445 217.113 129.352 217.354 129.259 217.594C129.202 217.761 129.208 217.881 129.12 218.059C128.996 218.284 128.912 218.242 128.693 218.134C128.285 217.932 128.013 217.746 127.756 217.345C127.372 216.752 126.77 216.26 126.2 215.834C125.64 215.414 125.116 214.973 124.525 214.59C123.944 214.212 123.374 213.839 122.798 213.451C122.312 213.119 121.83 212.777 121.339 212.43C120.852 212.098 120.329 211.84 119.827 211.539C119.404 211.291 118.954 211.121 118.536 210.862C118.279 210.696 118.028 210.546 117.756 210.412C117.537 210.303 117.343 210.194 117.155 210.049C116.961 209.915 116.747 209.848 116.543 209.734C116.407 209.667 115.999 209.335 115.679 208.982Z" fill="white"/>
    <path fill-rule="evenodd" clip-rule="evenodd" d="M123.186 207.93C122.993 207.978 122.769 207.984 122.655 208.136C122.613 208.193 122.557 208.334 122.541 208.418C122.434 208.846 123.082 209.193 123.391 209.358C124.269 209.792 125.417 210.022 126.376 209.715C126.985 209.509 127.713 208.984 127.893 208.331C128.128 207.433 127.472 206.523 126.802 205.984C126.169 205.475 125.196 204.942 124.363 205.233C124.066 205.334 123.775 205.502 123.614 205.774C123.485 205.983 123.465 206.233 123.357 206.453C123.222 206.751 122.941 206.924 122.943 207.289C122.934 207.519 123.034 207.738 123.186 207.93Z" fill="white"/>
    <path fill-rule="evenodd" clip-rule="evenodd" d="M128.434 210.603C128.501 210.337 128.537 210.316 128.766 210.195C128.975 210.089 129.157 210.089 129.34 210.244C129.634 210.493 129.646 210.994 129.35 211.225C129.158 211.377 128.84 211.363 128.61 211.275C128.348 211.172 128.217 210.886 128.252 210.604L128.434 210.603Z" fill="white"/>
    <path fill-rule="evenodd" clip-rule="evenodd" d="M144.704 194.824C144.256 194.81 144.104 194.8 143.756 195.031C143.584 195.142 143.47 195.241 143.466 195.46C143.442 196.008 143.785 196.737 144.157 197.116C144.424 197.391 144.868 197.572 145.254 197.554C145.598 197.542 145.978 197.327 146.29 197.195C146.582 197.079 146.863 196.931 147.133 196.779C147.612 196.521 148.054 196.18 147.999 195.58C147.939 195.044 147.556 194.451 147.049 194.239C146.636 194.074 146.334 194.081 145.911 194.093C145.499 194.111 145.16 194.086 144.704 194.824Z" fill="white"/>
    <path fill-rule="evenodd" clip-rule="evenodd" d="M141.939 195.916C142.201 196.071 142.416 196.268 142.589 196.497C142.522 196.607 142.642 196.758 142.523 196.868C142.351 197.03 142.058 196.807 141.901 196.73C141.718 196.626 141.551 196.439 141.482 196.236C141.455 196.158 141.35 195.82 141.533 195.897L141.939 195.916Z" fill="white"/>
    <path fill-rule="evenodd" clip-rule="evenodd" d="M110.463 199.585C110.146 199.805 109.792 200.047 109.919 200.526C110.041 200.964 110.585 201.154 110.997 201.163C111.216 201.167 111.456 201.182 111.575 200.993C111.699 200.795 111.776 200.559 111.89 200.356C112.149 199.859 112.821 199.762 112.609 199.059C112.519 198.767 112.21 198.419 111.912 198.337C111.364 198.183 110.849 198.592 110.465 198.922L110.463 199.585Z" fill="white"/>
    <path fill-rule="evenodd" clip-rule="evenodd" d="M61.4055 198.102C60.7633 197.954 60.1375 197.982 59.5229 198.173C59.4972 198.251 59.461 198.325 59.4353 198.403C59.1081 198.723 58.8803 199.104 58.8981 199.569C58.9254 200.987 60.1741 201.435 61.2457 201.952C62.3853 202.515 63.7765 203.359 64.0394 201.512C64.1555 200.671 64.405 199.324 63.9581 198.544C63.7215 198.128 63.4869 198.155 63.0799 198.11C62.5685 198.065 61.9159 197.938 61.4055 198.102Z" fill="white"/>
    <path fill-rule="evenodd" clip-rule="evenodd" d="M73.596 206.34C73.9288 206.114 74.4848 205.647 74.9498 205.812C75.3364 205.951 75.3585 206.222 75.5268 206.539C75.8951 207.242 76.1857 208.049 75.2437 208.507C74.8325 208.707 74.1072 208.622 73.7147 208.337C73.3693 208.088 72.9641 207.302 73.3066 206.925L73.596 206.34Z" fill="white"/>
    <path fill-rule="evenodd" clip-rule="evenodd" d="M177.631 133.533C176.784 134.194 176.716 134.226 176.522 135.223C176.385 135.975 176.143 136.779 176.382 137.534C176.704 138.54 177.676 138.812 178.414 139.398C178.995 139.854 179.34 140.077 180.117 139.927C180.867 139.778 181.731 139.372 182.371 138.947C184.445 137.539 185.814 134.638 185.918 132.192C185.984 130.585 185.855 128.635 184.567 127.477C183.488 126.502 181.9 126.081 180.536 126.604C179.156 127.132 178.223 128.44 177.87 129.839C177.803 130.184 177.742 130.518 177.676 130.863C177.537 131.275 177.346 131.662 177.134 132.039C176.964 132.462 177.013 132.941 177.631 133.533Z" fill="white"/>
    <path fill-rule="evenodd" clip-rule="evenodd" d="M173.583 135.722C174.083 136.789 174.025 136.617 173.732 137.526C173.603 137.917 173.708 138.073 173.464 138.382C173.163 138.754 172.324 138.872 171.906 138.614C171.566 138.406 171.353 137.469 171.346 137.14C171.328 136.624 171.526 136.435 171.921 136.136L173.583 135.722Z" fill="white"/>
    <path fill-rule="evenodd" clip-rule="evenodd" d="M90.2895 94.2991C89.7551 94.9326 89.0909 95.6711 89.6582 96.55C90.0365 97.1533 91.0383 97.2322 91.6897 97.0989C92.6277 96.9121 94.0056 95.9669 94.534 95.1613C95.1038 94.2981 94.4867 92.7831 93.6915 92.2599C92.0802 91.2031 89.8319 93.4614 89.0916 94.6957L90.2895 94.2991Z" fill="white"/>
    <path fill-rule="evenodd" clip-rule="evenodd" d="M85.1795 101.635C85.1836 101.39 85.0548 100.598 85.2572 100.373C85.3454 100.273 85.5074 100.314 85.601 100.256C85.9806 100.015 86.371 99.8303 86.8045 99.9535C87.7237 100.226 88.2482 100.875 88.2995 101.824C88.3389 102.455 88.096 102.947 87.4866 103.153C86.82 103.37 85.7547 103.103 85.5686 102.322L85.1795 101.635Z" fill="white"/>
    <path fill-rule="evenodd" clip-rule="evenodd" d="M115.618 231.055C114.444 231.984 113.84 233.363 113.45 234.81C113.198 235.739 112.766 236.905 113.479 237.725C115.156 239.648 119.036 235.906 120.151 234.649C121.075 233.623 121.914 232.242 122.309 230.889C122.551 230.059 122.704 228.248 122.153 227.494C121.439 226.517 120.058 226.601 119.11 227.07C116.909 228.154 116.148 230.562 114.539 232.239L115.618 231.055Z" fill="white"/>
    <path fill-rule="evenodd" clip-rule="evenodd" d="M114.676 230.225C114.435 230.158 113.437 229.756 112.994 229.81C112.676 229.848 112.191 229.907 111.994 230.148C111.709 230.489 111.8 231.015 111.937 231.395C112.027 231.635 112.284 231.983 112.576 231.997C112.801 232.017 113.102 231.828 113.3 231.718C113.664 231.533 113.976 231.271 114.304 231.004C114.454 230.883 114.626 230.773 114.745 230.61C114.937 230.354 114.795 230.167 114.841 229.916L114.686 230.23L114.676 230.225Z" fill="white"/>
    <path fill-rule="evenodd" clip-rule="evenodd" d="M108 240.729C108.189 240.952 108.372 241.186 108.545 241.415C108.354 241.671 108.308 242.052 107.938 242.09C107.688 242.123 107.181 241.885 107.013 241.698C106.756 241.428 106.677 241.089 106.847 240.77C107.044 240.399 107.466 240.413 107.832 240.516L108 240.729Z" fill="white"/>
    <path fill-rule="evenodd" clip-rule="evenodd" d="M67.7215 239.435C67.436 239.723 67.2649 239.964 67.4025 240.396C67.6087 241.006 68.1582 241.394 68.7835 241.261C69.6485 241.09 70.8657 240.339 71.1014 239.415C71.2448 238.835 70.8701 237.882 70.1819 237.932C69.843 237.96 69.358 237.993 69.0404 238.11C68.4832 238.316 68.0578 238.834 67.7628 239.326L67.7111 239.43L67.7215 239.435Z" fill="white"/>
    <path fill-rule="evenodd" clip-rule="evenodd" d="M180.438 77.4805C180.073 77.5864 179.912 77.5976 179.699 77.8959C179.461 78.2203 179.243 78.5552 179.287 78.9931C179.374 79.8429 180.187 80.7781 180.836 81.3071C181.428 81.7947 181.997 81.9591 182.748 81.8357C183.587 81.6911 184.258 81.3333 184.74 80.6218C185.248 79.884 185.375 79.2315 184.928 78.3989C184.575 77.7433 184.04 76.9321 183.422 76.4967C182.847 76.0821 182.33 76.0479 181.663 76.2126C181.043 76.3615 180.174 76.7254 180.438 77.4805Z" fill="white"/>
    <path fill-rule="evenodd" clip-rule="evenodd" d="M184.765 82.7028C184.879 82.4989 184.956 82.2377 185.212 82.2991C185.541 82.3707 185.929 82.9009 186.019 83.1926C186.093 83.4374 186.069 83.907 185.924 84.1215C185.8 84.2942 185.544 84.3631 185.346 84.3953C185.002 84.4595 184.684 84.341 184.51 84.0601C184.384 83.8677 184.069 83.4258 184.272 83.2005L184.765 82.7028Z" fill="white"/>
    <path fill-rule="evenodd" clip-rule="evenodd" d="M180.805 48.0765C180.609 48.4477 180.526 48.6411 180.564 49.0634C180.614 49.6734 180.852 50.2983 181.162 50.8289C181.567 51.5103 182.18 52.1908 182.937 52.4743C183.47 52.6857 184.262 52.3483 184.573 51.9035C184.956 51.3645 185.145 50.404 185.032 49.7629C184.808 48.5069 183.951 47.1599 182.718 46.6804C181.302 46.1235 180.263 48.1207 180.805 48.0765Z" fill="white"/>
    <path fill-rule="evenodd" clip-rule="evenodd" d="M184.298 55.7229C184.219 55.5146 184.197 55.2956 184.238 55.0816C184.483 55.0857 184.654 54.8972 184.899 54.9273C185.145 54.9575 185.38 55.139 185.506 55.3314C185.706 55.6122 185.765 55.9405 185.631 56.2645C185.481 56.6199 185.309 56.6259 184.954 56.6327C184.693 56.6339 184.626 56.6655 184.468 56.4315C184.384 56.3119 184.258 56.0673 184.2 55.9216L184.298 55.7229Z" fill="white"/>
    </g>
    <path fill-rule="evenodd" clip-rule="evenodd" d="M63.3217 189.304C62.779 190.402 61.6915 190.97 60.9073 190.582C60.1127 190.19 59.9143 188.986 60.457 187.888C60.9996 186.79 62.0872 186.222 62.8713 186.609C63.6659 187.002 63.8644 188.206 63.3217 189.304Z" fill="url(#paint26_linear_1956_75932)"/>
    <path d="M61.1188 190.154C61.7424 190.462 62.5928 190.015 63.0181 189.154C63.4434 188.294 63.2826 187.346 62.659 187.038C62.0354 186.73 61.185 187.177 60.7597 188.038C60.3344 188.898 60.4952 189.846 61.1188 190.154Z" fill="white"/>
    <path fill-rule="evenodd" clip-rule="evenodd" d="M122.658 213.498C122.116 214.595 120.965 215.133 120.087 214.699C119.209 214.264 118.937 213.024 119.48 211.926C120.023 210.829 121.173 210.291 122.051 210.726C122.924 211.17 123.196 212.41 122.658 213.498Z" fill="url(#paint27_linear_1956_75932)"/>
    <path fill-rule="evenodd" clip-rule="evenodd" d="M122.324 213.332C121.895 214.2 120.999 214.616 120.309 214.275C119.619 213.934 119.412 212.959 119.835 212.102C120.264 211.234 121.16 210.818 121.85 211.159C122.54 211.5 122.748 212.475 122.324 213.332Z" fill="white"/>
    <path fill-rule="evenodd" clip-rule="evenodd" d="M96.0213 199.953C95.4786 201.051 94.1506 201.5 93.0528 200.957C91.955 200.415 91.5056 199.087 92.0483 197.989C92.591 196.891 93.919 196.442 95.0168 196.984C96.1146 197.527 96.564 198.855 96.0213 199.953Z" fill="url(#paint28_linear_1956_75932)"/>
    <path d="M93.2647 200.529C94.1251 200.954 95.1673 200.601 95.5926 199.741C96.0179 198.881 95.6653 197.838 94.8049 197.413C93.9445 196.988 92.9023 197.341 92.477 198.201C92.0516 199.061 92.4043 200.104 93.2647 200.529Z" fill="white"/>
    <g style="mix-blend-mode:screen">
    <path d="M88.9666 210.829C95.3415 213.98 103.064 211.367 106.215 204.992C109.367 198.617 106.753 190.895 100.379 187.744C94.0037 184.592 86.2813 187.205 83.13 193.58C79.9786 199.955 82.5918 207.678 88.9666 210.829Z" fill="url(#paint29_radial_1956_75932)"/>
    </g>
    <g style="mix-blend-mode:screen">
    <path d="M202.291 120.652C201.784 126.309 196.786 130.473 191.14 129.972C185.483 129.465 181.319 124.466 181.82 118.82C182.327 113.164 187.325 109 192.971 109.501C198.628 110.008 202.797 114.996 202.291 120.652Z" fill="url(#paint30_radial_1956_75932)"/>
    </g>
    <g style="mix-blend-mode:screen">
    <path d="M100.859 71.6557C100.601 74.5725 98.0127 76.728 95.0959 76.47C92.179 76.2121 90.0236 73.6243 90.2815 70.7075C90.5395 67.7906 93.1272 65.6351 96.0441 65.8931C98.961 66.1511 101.122 68.7284 100.859 71.6557Z" fill="url(#paint31_radial_1956_75932)"/>
    </g>
    <g style="mix-blend-mode:screen">
    <path d="M125.091 212.709C124.848 215.438 122.431 217.457 119.702 217.214C116.973 216.971 114.954 214.554 115.197 211.825C115.441 209.096 117.857 207.077 120.586 207.32C123.315 207.564 125.334 209.98 125.091 212.709Z" fill="url(#paint32_radial_1956_75932)"/>
    </g>
    <g style="mix-blend-mode:screen">
    <path d="M65.9156 188.583C65.6724 191.312 63.2562 193.331 60.5271 193.088C57.7981 192.845 55.779 190.429 56.0222 187.699C56.2654 184.97 58.6816 182.951 61.4106 183.195C64.1397 183.438 66.1588 185.854 65.9156 188.583Z" fill="url(#paint33_radial_1956_75932)"/>
    </g>
    <defs>
    <linearGradient id="paint0_linear_1956_75932" x1="98.8207" y1="297.179" x2="131.024" y2="232.035" gradientUnits="userSpaceOnUse">
    <stop stop-color="#A43440"/>
    <stop offset="1" stop-color="#C73634"/>
    </linearGradient>
    <linearGradient id="paint1_linear_1956_75932" x1="10.4731" y1="253.506" x2="42.6762" y2="188.362" gradientUnits="userSpaceOnUse">
    <stop stop-color="#A43440"/>
    <stop offset="1" stop-color="#C73634"/>
    </linearGradient>
    <radialGradient id="paint2_radial_1956_75932" cx="0" cy="0" r="1" gradientUnits="userSpaceOnUse" gradientTransform="translate(152.231 107.547) rotate(26.3049) scale(81.4508 148.855)">
    <stop stop-color="#F4BAB3"/>
    <stop offset="0.7654" stop-color="#8D6FC7"/>
    <stop offset="0.9637" stop-color="#B695E5"/>
    </radialGradient>
    <radialGradient id="paint3_radial_1956_75932" cx="0" cy="0" r="1" gradientUnits="userSpaceOnUse" gradientTransform="translate(173.667 35.118) rotate(26.3049) scale(21.9059 19.8817)">
    <stop offset="0.0223" stop-color="#AB5E75"/>
    <stop offset="0.2521" stop-color="#9F577B"/>
    <stop offset="0.6676" stop-color="#7F458C"/>
    <stop offset="0.9944" stop-color="#61349C"/>
    </radialGradient>
    <linearGradient id="paint4_linear_1956_75932" x1="172.911" y1="35.3176" x2="176.931" y2="27.1851" gradientUnits="userSpaceOnUse">
    <stop stop-color="#FFFF18"/>
    <stop offset="1" stop-color="#FF7400"/>
    </linearGradient>
    <radialGradient id="paint5_radial_1956_75932" cx="0" cy="0" r="1" gradientUnits="userSpaceOnUse" gradientTransform="translate(92.0781 198.695) rotate(26.3049) scale(38.6997 71.2655)">
    <stop offset="0.0223" stop-color="#8881BC"/>
    <stop offset="0.2869" stop-color="#8375B7"/>
    <stop offset="0.7657" stop-color="#7555AA"/>
    <stop offset="0.9944" stop-color="#6D43A3"/>
    </radialGradient>
    <radialGradient id="paint6_radial_1956_75932" cx="0" cy="0" r="1" gradientUnits="userSpaceOnUse" gradientTransform="translate(137.443 107.355) rotate(26.3049) scale(41.1464)">
    <stop offset="0.0223" stop-color="#8881BC"/>
    <stop offset="0.2869" stop-color="#8375B7"/>
    <stop offset="0.7657" stop-color="#7555AA"/>
    <stop offset="0.9944" stop-color="#6D43A3"/>
    </radialGradient>
    <radialGradient id="paint7_radial_1956_75932" cx="0" cy="0" r="1" gradientUnits="userSpaceOnUse" gradientTransform="translate(157.404 64.6584) rotate(26.3049) scale(51.1012 85.8603)">
    <stop offset="0.0223" stop-color="#725EB0"/>
    <stop offset="0.3834" stop-color="#6D52AA"/>
    <stop offset="0.9944" stop-color="#61349C"/>
    </radialGradient>
    <linearGradient id="paint8_linear_1956_75932" x1="126.395" y1="130.448" x2="154.525" y2="73.5434" gradientUnits="userSpaceOnUse">
    <stop stop-color="#FFFF97"/>
    <stop offset="1" stop-color="#FF7E59"/>
    </linearGradient>
    <radialGradient id="paint9_radial_1956_75932" cx="0" cy="0" r="1" gradientUnits="userSpaceOnUse" gradientTransform="translate(66.2278 252.5) rotate(26.3049) scale(15.2032 27.9967)">
    <stop offset="0.0223" stop-color="#725EB0"/>
    <stop offset="0.3834" stop-color="#6D52AA"/>
    <stop offset="0.9944" stop-color="#61349C"/>
    </radialGradient>
    <radialGradient id="paint10_radial_1956_75932" cx="0" cy="0" r="1" gradientUnits="userSpaceOnUse" gradientTransform="translate(161.399 59.6671) rotate(26.3049) scale(28.0105 28.0105)">
    <stop offset="0.0223" stop-color="#8881BC"/>
    <stop offset="0.2869" stop-color="#8375B7"/>
    <stop offset="0.7657" stop-color="#7555AA"/>
    <stop offset="0.9944" stop-color="#6D43A3"/>
    </radialGradient>
    <linearGradient id="paint11_linear_1956_75932" x1="99.6716" y1="179.711" x2="101.369" y2="176.277" gradientUnits="userSpaceOnUse">
    <stop stop-color="#8DC7FF"/>
    <stop offset="0.3156" stop-color="#5C4D86"/>
    </linearGradient>
    <radialGradient id="paint12_radial_1956_75932" cx="0" cy="0" r="1" gradientUnits="userSpaceOnUse" gradientTransform="translate(101.094 177.445) rotate(26.3049) scale(1.50792 1.50791)">
    <stop offset="0.0223" stop-color="#8881BC"/>
    <stop offset="0.2884" stop-color="#8375B7"/>
    <stop offset="0.77" stop-color="#7555AA"/>
    <stop offset="1" stop-color="#6D43A3"/>
    </radialGradient>
    <linearGradient id="paint13_linear_1956_75932" x1="103.858" y1="171.242" x2="105.556" y2="167.808" gradientUnits="userSpaceOnUse">
    <stop stop-color="#8DC7FF"/>
    <stop offset="0.3156" stop-color="#5C4D86"/>
    </linearGradient>
    <radialGradient id="paint14_radial_1956_75932" cx="0" cy="0" r="1" gradientUnits="userSpaceOnUse" gradientTransform="translate(105.28 168.976) rotate(26.3049) scale(1.50792)">
    <stop offset="0.0223" stop-color="#8881BC"/>
    <stop offset="0.2884" stop-color="#8375B7"/>
    <stop offset="0.77" stop-color="#7555AA"/>
    <stop offset="1" stop-color="#6D43A3"/>
    </radialGradient>
    <radialGradient id="paint15_radial_1956_75932" cx="0" cy="0" r="1" gradientUnits="userSpaceOnUse" gradientTransform="translate(105.55 97.2738) rotate(26.3049) scale(1.508 1.50803)">
    <stop stop-color="#F4BAB3"/>
    <stop offset="1" stop-color="#8D6FC7"/>
    </radialGradient>
    <radialGradient id="paint16_radial_1956_75932" cx="0" cy="0" r="1" gradientUnits="userSpaceOnUse" gradientTransform="translate(120.573 74.4621) rotate(26.3049) scale(1.508 1.50803)">
    <stop stop-color="#F4BAB3"/>
    <stop offset="1" stop-color="#8D6FC7"/>
    </radialGradient>
    <radialGradient id="paint17_radial_1956_75932" cx="0" cy="0" r="1" gradientUnits="userSpaceOnUse" gradientTransform="translate(112.131 124.407) rotate(26.3049) scale(1.50789 1.50791)">
    <stop stop-color="#F4BAB3"/>
    <stop offset="1" stop-color="#8D6FC7"/>
    </radialGradient>
    <radialGradient id="paint18_radial_1956_75932" cx="0" cy="0" r="1" gradientUnits="userSpaceOnUse" gradientTransform="translate(137.7 139.617) rotate(26.3049) scale(1.50804 1.50803)">
    <stop stop-color="#F4BAB3"/>
    <stop offset="1" stop-color="#8D6FC7"/>
    </radialGradient>
    <radialGradient id="paint19_radial_1956_75932" cx="0" cy="0" r="1" gradientUnits="userSpaceOnUse" gradientTransform="translate(163.622 132.492) rotate(26.3049) scale(1.50804 1.50803)">
    <stop stop-color="#F4BAB3"/>
    <stop offset="1" stop-color="#8D6FC7"/>
    </radialGradient>
    <radialGradient id="paint20_radial_1956_75932" cx="0" cy="0" r="1" gradientUnits="userSpaceOnUse" gradientTransform="translate(175.907 100.705) rotate(26.3049) scale(1.508 1.50803)">
    <stop stop-color="#F4BAB3"/>
    <stop offset="1" stop-color="#8D6FC7"/>
    </radialGradient>
    <radialGradient id="paint21_radial_1956_75932" cx="0" cy="0" r="1" gradientUnits="userSpaceOnUse" gradientTransform="translate(170.133 78.3285) rotate(26.3049) scale(1.50789 1.50791)">
    <stop stop-color="#F4BAB3"/>
    <stop offset="1" stop-color="#8D6FC7"/>
    </radialGradient>
    <radialGradient id="paint22_radial_1956_75932" cx="0" cy="0" r="1" gradientUnits="userSpaceOnUse" gradientTransform="translate(148.567 64.6081) rotate(26.3049) scale(1.50792 1.50791)">
    <stop stop-color="#F4BAB3"/>
    <stop offset="1" stop-color="#8D6FC7"/>
    </radialGradient>
    <linearGradient id="paint23_linear_1956_75932" x1="67.4668" y1="281.68" x2="103.25" y2="209.295" gradientUnits="userSpaceOnUse">
    <stop stop-color="#A43411"/>
    <stop offset="1" stop-color="#C73634"/>
    </linearGradient>
    <linearGradient id="paint24_linear_1956_75932" x1="189.686" y1="120.024" x2="193.976" y2="122.145" gradientUnits="userSpaceOnUse">
    <stop stop-color="#FFFF18"/>
    <stop offset="1" stop-color="#FF7400"/>
    </linearGradient>
    <linearGradient id="paint25_linear_1956_75932" x1="93.2137" y1="70.8741" x2="97.2435" y2="72.8662" gradientUnits="userSpaceOnUse">
    <stop stop-color="#FFFF18"/>
    <stop offset="1" stop-color="#FF7400"/>
    </linearGradient>
    <linearGradient id="paint26_linear_1956_75932" x1="60.9093" y1="190.581" x2="62.8711" y2="186.612" gradientUnits="userSpaceOnUse">
    <stop stop-color="#8DC7FF"/>
    <stop offset="0.3156" stop-color="#5C4D86"/>
    </linearGradient>
    <linearGradient id="paint27_linear_1956_75932" x1="120.094" y1="214.705" x2="122.055" y2="210.736" gradientUnits="userSpaceOnUse">
    <stop stop-color="#8DC7FF"/>
    <stop offset="0.3156" stop-color="#5C4D86"/>
    </linearGradient>
    <linearGradient id="paint28_linear_1956_75932" x1="93.0598" y1="200.955" x2="95.0216" y2="196.986" gradientUnits="userSpaceOnUse">
    <stop stop-color="#8DC7FF"/>
    <stop offset="0.3156" stop-color="#5C4D86"/>
    </linearGradient>
    <radialGradient id="paint29_radial_1956_75932" cx="0" cy="0" r="1" gradientUnits="userSpaceOnUse" gradientTransform="translate(94.6727 199.283) rotate(5.12556) scale(12.8734 12.8735)">
    <stop stop-color="#003CEE"/>
    <stop offset="0.0562" stop-color="#0036D6"/>
    <stop offset="0.1982" stop-color="#00289E"/>
    <stop offset="0.341" stop-color="#001C6D"/>
    <stop offset="0.4814" stop-color="#001246"/>
    <stop offset="0.6191" stop-color="#000A27"/>
    <stop offset="0.7532" stop-color="#000412"/>
    <stop offset="0.882" stop-color="#000104"/>
    <stop offset="1"/>
    </radialGradient>
    <radialGradient id="paint30_radial_1956_75932" cx="0" cy="0" r="1" gradientUnits="userSpaceOnUse" gradientTransform="translate(192.057 119.735) rotate(5.12567) scale(10.2759 10.2759)">
    <stop stop-color="#FF9A00"/>
    <stop offset="0.0906" stop-color="#D68100"/>
    <stop offset="0.2273" stop-color="#9E5F00"/>
    <stop offset="0.3649" stop-color="#6E4200"/>
    <stop offset="0.5002" stop-color="#462A00"/>
    <stop offset="0.6329" stop-color="#271800"/>
    <stop offset="0.7621" stop-color="#120B00"/>
    <stop offset="0.8863" stop-color="#040300"/>
    <stop offset="1"/>
    </radialGradient>
    <radialGradient id="paint31_radial_1956_75932" cx="0" cy="0" r="1" gradientUnits="userSpaceOnUse" gradientTransform="translate(95.5712 71.1779) rotate(5.1256) scale(5.31036 5.31036)">
    <stop stop-color="#FF9A00"/>
    <stop offset="0.0906" stop-color="#D68100"/>
    <stop offset="0.2273" stop-color="#9E5F00"/>
    <stop offset="0.3649" stop-color="#6E4200"/>
    <stop offset="0.5002" stop-color="#462A00"/>
    <stop offset="0.6329" stop-color="#271800"/>
    <stop offset="0.7621" stop-color="#120B00"/>
    <stop offset="0.8863" stop-color="#040300"/>
    <stop offset="1"/>
    </radialGradient>
    <radialGradient id="paint32_radial_1956_75932" cx="0" cy="0" r="1" gradientUnits="userSpaceOnUse" gradientTransform="translate(120.152 212.264) rotate(5.12561) scale(4.9635)">
    <stop stop-color="#003CEE"/>
    <stop offset="0.0562" stop-color="#0036D6"/>
    <stop offset="0.1982" stop-color="#00289E"/>
    <stop offset="0.341" stop-color="#001C6D"/>
    <stop offset="0.4814" stop-color="#001246"/>
    <stop offset="0.6191" stop-color="#000A27"/>
    <stop offset="0.7532" stop-color="#000412"/>
    <stop offset="0.882" stop-color="#000104"/>
    <stop offset="1"/>
    </radialGradient>
    <radialGradient id="paint33_radial_1956_75932" cx="0" cy="0" r="1" gradientUnits="userSpaceOnUse" gradientTransform="translate(60.9669 188.14) rotate(5.12561) scale(4.9635)">
    <stop stop-color="#003CEE"/>
    <stop offset="0.0562" stop-color="#0036D6"/>
    <stop offset="0.1982" stop-color="#00289E"/>
    <stop offset="0.341" stop-color="#001C6D"/>
    <stop offset="0.4814" stop-color="#001246"/>
    <stop offset="0.6191" stop-color="#000A27"/>
    <stop offset="0.7532" stop-color="#000412"/>
    <stop offset="0.882" stop-color="#000104"/>
    <stop offset="1"/>
    </radialGradient>
    </defs>
    </svg>
    