<svg width="1606" height="409" viewBox="0 0 1606 409" fill="none" xmlns="http://www.w3.org/2000/svg">
    <path opacity="0.2" d="M1162.17 141.139L1164.71 145.931C1165.59 147.597 1166.91 148.963 1168.54 149.866L1173.19 152.482C1173.38 152.574 1173.38 152.852 1173.19 152.945L1168.54 155.56C1166.91 156.463 1165.59 157.829 1164.71 159.496L1162.17 164.287C1162.07 164.472 1161.82 164.472 1161.7 164.287L1159.16 159.496C1158.27 157.829 1156.95 156.463 1155.33 155.56L1150.68 152.945C1150.49 152.852 1150.49 152.574 1150.68 152.482L1155.33 149.866C1156.95 148.963 1158.27 147.597 1159.16 145.931L1161.7 141.139C1161.82 140.954 1162.07 140.954 1162.17 141.139Z" fill="#FEFDF7"/>
    <path opacity="0.5" d="M1487.46 73.9184L1490.08 78.7101C1490.98 80.3768 1492.35 81.7426 1494.01 82.6454L1498.81 85.2611C1498.99 85.3537 1498.99 85.6315 1498.81 85.7241L1494.01 88.3398C1492.35 89.2426 1490.98 90.6084 1490.08 92.2751L1487.46 97.0668C1487.37 97.252 1487.09 97.252 1487 97.0668L1484.38 92.2751C1483.47 90.6084 1482.11 89.2426 1480.44 88.3398L1475.65 85.7241C1475.46 85.6315 1475.46 85.3537 1475.65 85.2611L1480.44 82.6454C1482.11 81.7426 1483.47 80.3768 1484.38 78.7101L1487 73.9184C1487.09 73.7332 1487.34 73.7332 1487.46 73.9184Z" fill="#FEFDF7"/>
    <path opacity="0.1" d="M150.142 26.3949L151.138 28.2004C151.485 28.8254 151.995 29.3347 152.62 29.6819L154.427 30.6773C154.497 30.7236 154.497 30.8162 154.427 30.8625L152.62 31.8579C151.995 32.2051 151.485 32.7144 151.138 33.3394L150.142 35.1449C150.096 35.2144 150.003 35.2144 149.957 35.1449L148.961 33.3394C148.613 32.7144 148.104 32.1819 147.478 31.8579L145.672 30.8625C145.602 30.8162 145.602 30.7236 145.672 30.6773L147.478 29.6819C148.104 29.3347 148.613 28.8254 148.961 28.2004L149.957 26.3949C150.003 26.3254 150.119 26.3254 150.142 26.3949Z" fill="#FEFDF7"/>
    <path opacity="0.1" d="M1361.47 0.0520838L1362.47 1.85765C1362.82 2.48266 1363.33 2.99192 1363.95 3.33915L1365.76 4.33453C1365.83 4.38082 1365.83 4.47341 1365.76 4.51971L1363.95 5.51509C1363.33 5.86231 1362.82 6.37158 1362.47 6.99659L1361.47 8.80216C1361.43 8.8716 1361.34 8.8716 1361.29 8.80216L1360.29 6.99659C1359.95 6.37158 1359.44 5.86231 1358.81 5.51509L1357 4.51971C1356.93 4.47341 1356.93 4.38082 1357 4.33453L1358.81 3.33915C1359.44 2.99192 1359.95 2.48266 1360.29 1.85765L1361.29 0.0520838C1361.34 -0.0173613 1361.45 -0.0173613 1361.47 0.0520838Z" fill="#FEFDF7"/>
    <path opacity="0.2" d="M1423.06 136.052L1424.06 137.858C1424.4 138.483 1424.91 138.992 1425.54 139.339L1427.35 140.335C1427.42 140.381 1427.42 140.473 1427.35 140.52L1425.54 141.515C1424.91 141.862 1424.4 142.372 1424.06 142.997L1423.06 144.802C1423.01 144.872 1422.92 144.872 1422.88 144.802L1421.88 142.997C1421.53 142.372 1421.02 141.862 1420.4 141.515L1418.59 140.52C1418.52 140.473 1418.52 140.381 1418.59 140.335L1420.4 139.339C1421.02 138.992 1421.53 138.483 1421.88 137.858L1422.88 136.052C1422.92 135.983 1423.01 135.983 1423.06 136.052Z" fill="#FEFDF7"/>
    <path opacity="0.2" d="M456.218 12.2513L457.492 14.5893C457.932 15.3995 458.604 16.0708 459.414 16.5106L461.754 17.7838C461.847 17.8301 461.847 17.969 461.754 18.0153L459.414 19.2884C458.604 19.7283 457.932 20.3996 457.492 21.2097L456.218 23.5477C456.172 23.6403 456.033 23.6403 455.986 23.5477L454.712 21.2097C454.272 20.3996 453.601 19.7283 452.79 19.2884L450.45 18.0153C450.358 17.969 450.358 17.8301 450.45 17.7838L452.79 16.5106C453.601 16.0708 454.272 15.3995 454.712 14.5893L455.986 12.2513C456.033 12.1587 456.172 12.1587 456.218 12.2513Z" fill="#FEFDF7"/>
    <path opacity="0.2" d="M1237.32 79.8214L1238.6 82.1594C1239.04 82.9696 1239.71 83.6409 1240.52 84.0807L1242.86 85.3539C1242.95 85.4001 1242.95 85.5391 1242.86 85.5854L1240.52 86.8585C1239.71 87.2983 1239.04 87.9696 1238.6 88.7798L1237.32 91.1178C1237.28 91.2104 1237.14 91.2104 1237.09 91.1178L1235.82 88.7798C1235.38 87.9696 1234.7 87.2983 1233.89 86.8585L1231.55 85.5854C1231.46 85.5391 1231.46 85.4001 1231.55 85.3539L1233.89 84.0807C1234.7 83.6409 1235.38 82.9696 1235.82 82.1594L1237.09 79.8214C1237.14 79.7288 1237.25 79.7288 1237.32 79.8214Z" fill="#FEFDF7"/>
    <path opacity="0.1" d="M1325.23 72.8537L1327.06 76.187C1327.68 77.3444 1328.65 78.2935 1329.81 78.9417L1333.15 80.7704C1333.29 80.8399 1333.29 81.025 1333.15 81.0945L1329.81 82.9232C1328.65 83.5482 1327.7 84.5205 1327.06 85.6779L1325.23 89.0112C1325.16 89.1501 1324.97 89.1501 1324.9 89.0112L1323.07 85.6779C1322.45 84.5205 1321.47 83.5714 1320.31 82.9232L1316.98 81.0945C1316.84 81.025 1316.84 80.8399 1316.98 80.7704L1320.31 78.9417C1321.47 78.3167 1322.42 77.3444 1323.07 76.187L1324.9 72.8537C1324.97 72.7148 1325.16 72.7148 1325.23 72.8537Z" fill="#FEFDF7"/>
    <path opacity="0.4" d="M1535.41 327.184L1537.24 330.518C1537.86 331.675 1538.83 332.624 1539.99 333.272L1543.33 335.101C1543.47 335.171 1543.47 335.356 1543.33 335.425L1539.99 337.254C1538.83 337.879 1537.88 338.851 1537.24 340.009L1535.41 343.342C1535.34 343.481 1535.15 343.481 1535.08 343.342L1533.25 340.009C1532.63 338.851 1531.65 337.902 1530.5 337.254L1527.16 335.425C1527.02 335.356 1527.02 335.171 1527.16 335.101L1530.5 333.272C1531.65 332.647 1532.6 331.675 1533.25 330.518L1535.08 327.184C1535.15 327.069 1535.34 327.069 1535.41 327.184Z" fill="#FEFDF7"/>
    <path opacity="0.1" d="M792.962 9.84413L794.791 13.1775C795.417 14.3349 796.39 15.284 797.548 15.9321L800.883 17.7609C801.022 17.8303 801.022 18.0155 800.883 18.0849L797.548 19.9137C796.39 20.5387 795.44 21.5109 794.791 22.6683L792.962 26.0017C792.892 26.1406 792.707 26.1406 792.637 26.0017L790.807 22.6683C790.182 21.5109 789.209 20.5618 788.051 19.9137L784.716 18.0849C784.577 18.0155 784.577 17.8303 784.716 17.7609L788.051 15.9321C789.209 15.3071 790.159 14.3349 790.807 13.1775L792.637 9.84413C792.707 9.72839 792.892 9.72839 792.962 9.84413Z" fill="#FEFDF7"/>
    <path opacity="0.3" d="M1475.51 4.95947C1475.51 6.41781 1474.32 7.59838 1472.87 7.59838C1471.41 7.59838 1470.23 6.41781 1470.23 4.95947C1470.23 3.50112 1471.41 2.32056 1472.87 2.32056C1474.32 2.32056 1475.51 3.52427 1475.51 4.95947Z" fill="#FEFDF7"/>
    <path opacity="0.2" d="M1276.81 150.747C1276.81 152.206 1275.63 153.386 1274.17 153.386C1272.71 153.386 1271.53 152.206 1271.53 150.747C1271.53 149.289 1272.71 148.108 1274.17 148.108C1275.63 148.132 1276.81 149.312 1276.81 150.747Z" fill="#FEFDF7"/>
    <path d="M1603.67 278.92C1603.67 280.379 1602.49 281.559 1601.03 281.559C1599.57 281.559 1598.39 280.379 1598.39 278.92C1598.39 277.462 1599.57 276.281 1601.03 276.281C1602.51 276.304 1603.67 277.485 1603.67 278.92Z" fill="#FEFDF7"/>
    <path d="M606.639 198.178C606.639 199.637 605.457 200.794 603.998 200.794C602.539 200.794 601.381 199.614 601.381 198.155C601.381 196.697 602.562 195.54 604.021 195.54C605.457 195.563 606.639 196.743 606.639 198.178Z" fill="#FEFDF7"/>
    <path opacity="0.2" d="M575.832 300.888C575.832 302.346 574.651 303.504 573.192 303.504C571.732 303.504 570.574 302.323 570.574 300.865C570.574 299.406 571.755 298.249 573.215 298.249C574.674 298.272 575.855 299.43 575.832 300.888Z" fill="#FEFDF7"/>
    <path d="M1543.42 72.0665C1543.42 73.1545 1542.56 74.011 1541.52 74.011C1540.48 74.011 1539.62 73.1313 1539.62 72.0665C1539.62 70.9786 1540.48 70.1221 1541.52 70.1221C1542.56 70.1221 1543.42 70.9786 1543.42 72.0665Z" fill="#FEFDF7"/>
    <path opacity="0.3" d="M86.4204 144.868C86.4204 145.956 85.5403 146.812 84.4748 146.812C83.3861 146.812 82.5291 145.933 82.5291 144.868C82.5291 143.78 83.4093 142.923 84.4748 142.923C85.5634 142.923 86.4204 143.803 86.4204 144.868Z" fill="#FEFDF7"/>
    <path opacity="0.2" d="M82.5292 48.6636C85.2285 48.6636 87.4166 46.4768 87.4166 43.7793C87.4166 41.0818 85.2285 38.895 82.5292 38.895C79.83 38.895 77.6418 41.0818 77.6418 43.7793C77.6418 46.4768 79.83 48.6636 82.5292 48.6636Z" fill="#FEFDF7"/>
    <path opacity="0.2" d="M555.24 238.665C557.939 238.665 560.127 236.478 560.127 233.781C560.127 231.083 557.939 228.896 555.24 228.896C552.541 228.896 550.353 231.083 550.353 233.781C550.353 236.478 552.541 238.665 555.24 238.665Z" fill="#FEFDF7"/>
    <path opacity="0.3" d="M1498.95 226.096C1501.65 226.096 1503.83 223.909 1503.83 221.211C1503.83 218.514 1501.65 216.327 1498.95 216.327C1496.25 216.327 1494.06 218.514 1494.06 221.211C1494.06 223.909 1496.25 226.096 1498.95 226.096Z" fill="#FEFDF7"/>
    <path d="M60.3161 335.055C63.0153 335.055 65.2035 332.868 65.2035 330.17C65.2035 327.473 63.0153 325.286 60.3161 325.286C57.6169 325.286 55.4287 327.473 55.4287 330.17C55.4287 332.868 57.6169 335.055 60.3161 335.055Z" fill="#FEFDF7"/>
    <path opacity="0.3" d="M1007.52 319.592C1010.22 319.592 1012.41 317.405 1012.41 314.708C1012.41 312.01 1010.22 309.823 1007.52 309.823C1004.82 309.823 1002.63 312.01 1002.63 314.708C1002.63 317.405 1004.82 319.592 1007.52 319.592Z" fill="#FEFDF7"/>
    <path opacity="0.5" d="M32.7053 98.0618C32.7053 99.5201 31.5239 100.678 30.0647 100.678C28.6054 100.678 27.4473 99.497 27.4473 98.0386C27.4473 96.5803 28.6286 95.4229 30.0878 95.4229C31.524 95.4229 32.7053 96.6034 32.7053 98.0618Z" fill="#FEFDF7"/>
    <path d="M546.414 33.0382C545.164 32.3206 544.723 30.7002 545.465 29.4502C546.183 28.2002 547.804 27.7604 549.055 28.5011C550.306 29.2187 550.746 30.8391 550.005 32.0891C549.287 33.3391 547.665 33.7789 546.414 33.0382Z" fill="#FEFDF7"/>
    <path opacity="0.4" d="M690.929 43.4088C689.678 42.6912 689.238 41.0708 689.979 39.8208C690.697 38.5708 692.319 38.131 693.57 38.8717C694.82 39.5893 695.261 41.2097 694.519 42.4597C693.801 43.7097 692.18 44.1495 690.929 43.4088Z" fill="#FEFDF7"/>
    <path opacity="0.2" d="M948.432 225.309C948.432 226.767 947.251 227.925 945.792 227.925C944.332 227.925 943.174 226.744 943.174 225.286C943.174 223.827 944.355 222.67 945.815 222.67C947.251 222.67 948.432 223.85 948.432 225.309Z" fill="#FEFDF7"/>
    <path opacity="0.3" d="M985.4 10.1682C985.4 11.2793 984.497 12.1821 983.385 12.1821C982.273 12.1821 981.37 11.2793 981.37 10.1682C981.37 9.05708 982.273 8.1543 983.385 8.1543C984.497 8.1543 985.4 9.05708 985.4 10.1682Z" fill="#FEFDF7"/>
    <path opacity="0.5" d="M902.476 50.6772C903.589 50.6772 904.491 49.7756 904.491 48.6633C904.491 47.5511 903.589 46.6494 902.476 46.6494C901.363 46.6494 900.461 47.5511 900.461 48.6633C900.461 49.7756 901.363 50.6772 902.476 50.6772Z" fill="#FEFDF7"/>
    <path d="M1271.53 4.45004C1271.53 5.05189 1271.05 5.53801 1270.44 5.53801C1269.84 5.53801 1269.36 5.05189 1269.36 4.45004C1269.36 3.84818 1269.84 3.36206 1270.44 3.36206C1271.05 3.36206 1271.53 3.84818 1271.53 4.45004Z" fill="#FEFDF7"/>
    <path d="M28.4899 246.906C28.4899 247.508 28.0266 247.994 27.4244 247.994C26.8453 247.994 26.3821 247.508 26.3821 246.906C26.3821 246.304 26.8453 245.818 27.4476 245.818C28.0267 245.818 28.4899 246.304 28.4899 246.906Z" fill="#FEFDF7"/>
    <path opacity="0.4" d="M33.6783 176.049C34.5122 176.72 34.6512 177.947 33.9794 178.803C33.3077 179.637 32.0801 179.776 31.223 179.104C30.3892 178.433 30.2502 177.206 30.9219 176.35C31.6168 175.493 32.8444 175.354 33.6783 176.049Z" fill="#FEFDF7"/>
    <path d="M78.8465 405.519C79.6804 406.19 79.8194 407.417 79.1476 408.273C78.4759 409.107 77.2483 409.245 76.3912 408.574C75.5574 407.903 75.4184 406.676 76.0901 405.819C76.785 404.986 78.0127 404.847 78.8465 405.519Z" fill="#FEFDF7"/>
    <path d="M1577.86 147.044C1577.86 147.646 1577.38 148.132 1576.78 148.132C1576.17 148.132 1575.69 147.646 1575.69 147.044C1575.69 146.442 1576.17 145.956 1576.78 145.956C1577.38 145.956 1577.86 146.442 1577.86 147.044Z" fill="#FEFDF7"/>
    <path opacity="0.4" d="M542.454 126.998C542.454 128.086 541.574 128.965 540.462 128.965C539.373 128.965 538.493 128.086 538.493 126.975C538.493 125.887 539.373 125.007 540.485 125.007C541.574 125.03 542.454 125.91 542.454 126.998Z" fill="#FEFDF7"/>
    <path opacity="0.1" d="M893.397 136.072C893.397 136.674 892.911 137.16 892.308 137.16C891.706 137.16 891.22 136.674 891.22 136.072C891.22 135.47 891.706 134.984 892.308 134.984C892.911 134.984 893.397 135.47 893.397 136.072Z" fill="#FEFDF7"/>
    <path opacity="0.1" d="M632.998 84.6821C634.111 84.6821 635.013 83.7805 635.013 82.6682C635.013 81.556 634.111 80.6543 632.998 80.6543C631.885 80.6543 630.982 81.556 630.982 82.6682C630.982 83.7805 631.885 84.6821 632.998 84.6821Z" fill="#FEFDF7"/>
    <path opacity="0.2" d="M715.18 14.1958C714.068 14.1958 713.165 13.293 713.165 12.1819C713.165 11.0708 714.068 10.168 715.18 10.168C716.292 10.168 717.195 11.0708 717.195 12.1819C717.195 13.293 716.292 14.1958 715.18 14.1958Z" fill="#FEFDF7"/>
    <path opacity="0.2" d="M784.09 72.9465C784.692 72.9465 785.179 72.4594 785.179 71.8585C785.179 71.2576 784.692 70.7705 784.09 70.7705C783.489 70.7705 783.002 71.2576 783.002 71.8585C783.002 72.4594 783.489 72.9465 784.09 72.9465Z" fill="#FEFDF7"/>
    <path d="M652.617 243.827C652.663 244.429 652.223 244.939 651.621 245.008C651.019 245.054 650.509 244.614 650.44 244.013C650.394 243.411 650.834 242.901 651.436 242.832C652.061 242.786 652.571 243.249 652.617 243.827Z" fill="#FEFDF7"/>
    </svg>
    