<svg
				width="200"
				height="200"
				viewBox="0 0 200 200"
				fill="none"
				xmlns="http://www.w3.org/2000/svg"
			>
				<path
					opacity="0.05"
					d="M121.535 177.655C164.613 165.64 189.789 121.001 177.767 77.9505C165.745 34.8996 121.078 9.73942 77.9998 21.7536C34.9217 33.7678 9.74559 78.4068 21.7674 121.458C33.7892 164.509 78.4565 189.669 121.535 177.655Z"
					fill="white"
				/>
				<path
					d="M99.7644 173.69C140.657 173.69 173.806 140.562 173.806 99.6955C173.806 58.8292 140.657 25.7006 99.7644 25.7006C58.8723 25.7006 25.7227 58.8292 25.7227 99.6955C25.7227 140.562 58.8723 173.69 99.7644 173.69Z"
					fill="url(#paint0_radial_1972_72931)"
				/>
				<g opacity="0.2">
					<path
						d="M40.2549 55.6537C42.6962 56.3383 45.1472 56.9652 47.6465 57.3799C57.4312 59 67.766 57.1677 76.3928 52.2881C78.2359 51.2465 80.1658 50.0218 82.2791 50.1665C84.402 50.3015 86.1969 51.7866 88.2619 52.2591C92.2086 53.1463 95.9141 50.2726 98.9441 47.5916C103.904 43.1942 108.864 38.8064 113.814 34.4089C116.12 32.3645 119.276 30.185 122.026 31.5737C122.827 30.9758 123.676 30.4551 124.545 29.9729C117.452 27.4559 109.964 26.019 102.35 25.749C101.434 29.1725 100.507 32.6152 97.6703 34.38C93.6657 36.868 87.982 34.5054 83.9388 36.9452C81.0439 38.7003 79.6641 42.5867 76.4411 43.5896C71.4908 45.1422 67.2835 38.8064 62.1017 38.7003C57.6242 38.6135 54.4592 43.0785 50.2712 44.6311C46.5561 47.987 43.198 51.6805 40.2549 55.6537Z"
						fill="#FF9267"
					/>
					<path
						d="M140.118 37.6489C137.899 40.8217 135.506 43.8304 132.215 45.7977C125.335 49.9155 115.463 48.8933 110.407 55.1134C106.817 59.5205 106.267 66.9653 100.844 68.6818C96.5309 70.0512 91.9859 66.5699 87.5085 67.2257C82.4906 67.9586 79.2677 73.5615 74.2595 74.333C68.296 75.2491 63.3747 68.9712 57.3436 68.7108C50.4924 68.4118 43.8342 75.8663 37.7742 72.655C35.7381 71.5749 34.4354 69.5112 33.0748 67.5728C30.4018 73.1179 28.414 78.9908 27.1885 85.0373C34.4354 84.8252 41.7498 85.6352 48.9774 86.4453C56.176 87.2553 63.3747 88.0654 70.5348 89.1262C77.579 90.1773 85.6172 91.2188 91.0885 86.6574C93.3369 84.7769 94.9194 82.0767 97.4766 80.6495C100.371 79.0294 103.894 79.338 107.213 79.2801C120.182 79.068 132.563 72.4525 141.344 62.9054C144.49 59.4819 147.597 55.4605 152.142 54.4576C154.043 54.0333 156.031 54.1876 157.961 53.9176C152.866 47.4757 146.825 42.0078 140.118 37.6489Z"
						fill="#FF9267"
					/>
					<path
						d="M162.005 125.039C159.476 132.59 155.713 141.452 147.849 142.735C142.647 143.574 137.186 140.594 132.178 142.233C125.944 144.268 123.686 152.253 117.983 155.493C109.655 160.228 99.6389 152.774 90.0568 152.706C79.0755 152.639 68.7504 162.398 58.2901 159.071C54.0443 157.721 50.773 154.413 47.1641 151.771C53.8706 158.531 61.7736 163.873 70.3811 167.596C73.8453 165.956 77.3771 164.597 81.1694 164.124C87.8084 163.295 94.4377 165.272 101.067 166.178C107.696 167.085 115.184 166.641 120 161.993C123.348 158.753 125.471 153.536 130.074 152.754C134.59 151.993 138.759 156.207 143.323 155.734C147.964 155.262 150.618 150.411 154.073 147.267C155.588 145.888 157.286 144.837 159.1 143.979C166.752 133.728 171.625 121.625 173.237 108.925C167.476 111.461 164.128 118.674 162.005 125.039Z"
						fill="#FF9267"
					/>
					<path
						d="M60.1714 138.964C63.1628 138.058 65.8261 136.274 68.8272 135.425C76.0933 133.371 83.5815 137.064 91.002 138.434C105.303 141.086 120.887 134.162 128.51 121.779C131 117.729 133.103 112.811 137.552 111.133C143.853 108.751 151.911 114.161 157.247 110.053C162.033 106.369 160.422 97.8344 165.246 94.2084C167.533 92.4919 170.506 92.4533 173.439 92.299C172.841 86.3586 171.509 80.4085 169.396 74.5549C168.112 77.9783 166.617 81.2475 163.741 83.128C157.922 86.9275 148.881 83.3016 143.94 88.1812C140.437 91.6432 140.64 98.0948 136.404 100.602C132.225 103.08 126.822 99.9367 122.074 100.969C114.123 102.704 112.424 114.498 104.849 117.488C96.3673 120.834 87.5475 110.959 78.5829 112.57C74.5011 113.303 70.8922 116.398 66.7525 116.128C61.4548 115.791 57.8169 110.178 52.5868 109.301C47.4435 108.442 42.5511 112.415 37.3403 112.184C33.3068 112.001 29.8618 109.368 26.166 107.69C26.8897 114.286 28.5109 120.902 31.1163 127.353C34.6963 130.179 38.1702 133.139 42.0687 135.483C47.4821 138.762 54.1114 140.796 60.1714 138.964Z"
						fill="#FF9267"
					/>
				</g>
				<g style="mix-blend-mode:multiply" opacity="0.5">
					<path
						d="M47.28 121.423C32.7476 86.3586 47.1932 46.5404 79.587 28.507C76.8465 29.2881 74.1253 30.2139 71.4234 31.3229C33.645 46.9647 15.6966 90.245 31.3484 128.009C47.0001 165.764 90.3078 183.701 128.096 168.059C130.788 166.94 133.374 165.667 135.864 164.288C100.208 174.423 61.8123 156.486 47.28 121.423Z"
						fill="url(#paint1_linear_1972_72931)"
					/>
				</g>
				<defs>
					<radialGradient
						id="paint0_radial_1972_72931"
						cx="0"
						cy="0"
						r="1"
						gradientUnits="userSpaceOnUse"
						gradientTransform="translate(73.3429 24.5114) scale(160.971 160.869)"
					>
						<stop stop-color="#3B0E64" />
						<stop offset="0.1639" stop-color="#450B63" />
						<stop offset="0.3957" stop-color="#5A0362" />
						<stop offset="0.4848" stop-color="#5D0462" />
						<stop offset="0.5614" stop-color="#680661" />
						<stop offset="0.6334" stop-color="#7A0A61" />
						<stop offset="0.7026" stop-color="#931060" />
						<stop offset="0.7691" stop-color="#B2185F" />
						<stop offset="0.8339" stop-color="#D9215D" />
						<stop offset="0.835" stop-color="#DA215D" />
						<stop offset="1" stop-color="#FFE08D" />
					</radialGradient>
					<linearGradient
						id="paint1_linear_1972_72931"
						x1="31.357"
						y1="128.012"
						x2="107.716"
						y2="96.3628"
						gradientUnits="userSpaceOnUse"
					>
						<stop stop-color="#9796FE" />
						<stop offset="0.9927" stop-color="#FF7DFF" />
					</linearGradient>
				</defs>
			</svg>